<svg width="90" height="71" viewBox="0 0 90 71" fill="none" xmlns="http://www.w3.org/2000/svg">
<g clip-path="url(#clip0_2001_3275)">
<path fill-rule="evenodd" clip-rule="evenodd" d="M12.8195 10.6758V10.1055C14.3845 10.0633 16.5833 9.7501 17.8917 7.99849C18.7395 6.8579 19.1704 5.00655 18.4375 3.28444C18.093 2.50063 17.3176 1.04821 15.0466 1.20553C12.5884 1.3755 11.1226 2.1593 11.1226 2.1593L10.9482 1.6171L11.1637 1.49068C11.1637 1.49068 12.6153 0.734972 15.1742 0.591696C17.5898 0.449825 18.7253 2.30117 19.1137 3.20016C19.7885 4.70877 19.4157 7.20204 18.4092 8.39741C16.786 10.3078 14.7304 10.6196 12.9471 10.6772L12.8195 10.6758ZM25.0933 5.49257L25.3796 5.39284L25.7114 9.20931L25.3952 9.26549L25.0933 5.49257Z" fill="black"/>
<path d="M25.0928 5.49328L25.3791 5.39355L25.7109 9.21002L25.3947 9.2662L25.0928 5.49328Z" fill="black"/>
<path d="M25.3224 9.35147L25.0205 5.44931L25.4231 5.29199L25.7676 9.26719L25.3224 9.35147ZM25.1778 5.535L25.4514 9.1801L25.6386 9.15201L25.3224 5.47741L25.1778 5.53359V5.535Z" fill="black"/>
<path fill-rule="evenodd" clip-rule="evenodd" d="M25.4221 9.67987V9.39472C26.1989 9.36663 27.2636 9.22335 27.91 8.35527C28.3268 7.79902 28.5423 6.8874 28.168 6.04741C27.9965 5.66253 27.6222 4.95177 26.5009 5.03605C25.2945 5.12174 24.5757 5.50661 24.5757 5.50661L24.4893 5.24956L24.5885 5.19337C24.5885 5.19337 25.2945 4.82254 26.5448 4.75091C27.7371 4.68067 28.2843 5.5923 28.4856 6.03336C28.8159 6.77362 28.6429 7.98444 28.1397 8.58283C27.3486 9.52255 26.3435 9.67846 25.466 9.69251L25.4235 9.67846L25.4221 9.67987Z" fill="black"/>
<path d="M25.4221 9.67987V9.39472C26.1989 9.36663 27.2636 9.22335 27.91 8.35527C28.3268 7.79902 28.5423 6.8874 28.168 6.04741C27.9965 5.66253 27.6222 4.95177 26.5009 5.03605C25.2945 5.12174 24.5757 5.50661 24.5757 5.50661L24.4893 5.24956L24.5885 5.19337C24.5885 5.19337 25.2945 4.82254 26.5448 4.75091C27.7371 4.68067 28.2843 5.5923 28.4856 6.03336C28.8159 6.77362 28.6429 7.98444 28.1397 8.58283C27.3486 9.52255 26.3435 9.67846 25.466 9.69251L25.4235 9.67846L25.4221 9.67987Z" fill="black"/>
<path d="M25.4782 9.77905H25.3336V9.32534H25.4201C26.5698 9.29725 27.3608 8.96855 27.8357 8.32803C28.1943 7.85887 28.468 6.98938 28.0937 6.10585C27.9207 5.69288 27.5763 5.13804 26.6846 5.13804H26.5272C25.3492 5.22232 24.6304 5.59315 24.6304 5.59315L24.544 5.65074L24.3994 5.22372L24.5723 5.12399C24.6007 5.10994 25.3052 4.73911 26.5712 4.68293C27.8357 4.59724 28.4098 5.59315 28.597 6.00752C28.9414 6.76183 28.7543 8.01619 28.2383 8.64127C27.4033 9.59644 26.3684 9.75095 25.4782 9.77905ZM25.5065 9.4953V9.60768C26.3543 9.57958 27.3183 9.42367 28.0795 8.52609C28.5686 7.9572 28.726 6.77447 28.4098 6.07635C28.2085 5.62124 27.7053 4.85149 26.686 4.85149H26.5697C25.3492 4.92312 24.6588 5.2785 24.6446 5.2785L24.6021 5.3066L24.6304 5.40773C24.8601 5.308 25.5207 5.05095 26.4989 4.98072C27.7492 4.89503 28.1362 5.77716 28.2525 6.04826C28.6537 6.98938 28.3517 7.9277 27.9789 8.4404C27.4756 9.09639 26.6704 9.43912 25.5065 9.4953Z" fill="black"/>
<path fill-rule="evenodd" clip-rule="evenodd" d="M21.2827 9.16656C20.8503 9.16656 20.9368 8.88282 20.9368 8.88282L21.0516 7.21548L23.0505 7.10311L23.0363 6.8601L21.08 6.94438L21.1962 5.30795L23.5963 5.20822L23.5821 4.95117L20.7355 5.03685L20.7071 5.322L20.951 5.30795L20.649 8.89687C20.5923 9.42362 21.2529 9.45171 21.2529 9.45171L23.5963 9.32388L23.5821 9.08088L21.2827 9.16656Z" fill="black"/>
<path d="M21.2827 9.16656C20.8503 9.16656 20.9368 8.88282 20.9368 8.88282L21.0516 7.21548L23.0505 7.10311L23.0363 6.8601L21.08 6.94438L21.1962 5.30795L23.5963 5.20822L23.5821 4.95117L20.7355 5.03685L20.7071 5.322L20.951 5.30795L20.649 8.89687C20.5923 9.42362 21.2529 9.45171 21.2529 9.45171L23.5963 9.32388L23.5821 9.08088L21.2827 9.16656Z" fill="black"/>
<path d="M21.2573 9.53649C21.2431 9.53649 20.883 9.52245 20.6817 9.29489C20.5811 9.18111 20.5527 9.05188 20.5669 8.88192L20.8547 5.39274L20.6094 5.40678L20.652 4.93622L23.6715 4.83789L23.6999 5.26351H23.6148L21.2998 5.36324L21.1992 6.81566L23.1399 6.74543L23.1682 7.17244L21.1552 7.28622L21.0418 8.88192C21.0418 8.89597 21.0276 8.95215 21.056 8.99429C21.0843 9.03784 21.1694 9.06593 21.2856 9.06593L23.6715 8.98165L23.6999 9.40867L21.2573 9.53649ZM21.0404 5.22137L20.7384 8.91001C20.7243 9.02379 20.7526 9.10948 20.8107 9.19516C20.9256 9.33703 21.1708 9.36512 21.2573 9.37917L23.5127 9.2668V9.19516L21.2998 9.27944C21.1127 9.27944 20.9837 9.2373 20.9114 9.13897C20.8263 9.02379 20.8547 8.89597 20.8689 8.88192L20.9979 7.1584L22.9825 7.04462V6.97298L21.012 7.05726L21.141 5.24946L23.5269 5.15113V5.0795L20.8391 5.16378L20.8249 5.27755L21.0404 5.22137Z" fill="black"/>
<path fill-rule="evenodd" clip-rule="evenodd" d="M41.7221 4.7373C40.442 4.7373 39.4072 5.8189 39.4072 7.15754C39.4072 8.49759 40.442 9.57917 41.7221 9.57917C43.0008 9.57917 44.0357 8.49759 44.0357 7.15754C44.0357 5.8189 43.0008 4.7373 41.7221 4.7373ZM41.7221 9.27998C40.6008 9.27998 39.6949 8.34027 39.6949 7.17299C39.6949 6.00431 40.6008 5.06599 41.7221 5.06599C42.8421 5.06599 43.7493 6.00431 43.7493 7.17299C43.7493 8.34027 42.8421 9.27998 41.7221 9.27998Z" fill="black"/>
<path d="M41.7221 4.7373C40.442 4.7373 39.4072 5.8189 39.4072 7.15754C39.4072 8.49759 40.442 9.57917 41.7221 9.57917C43.0008 9.57917 44.0357 8.49759 44.0357 7.15754C44.0357 5.8189 43.0008 4.7373 41.7221 4.7373ZM41.7221 9.27998C40.6008 9.27998 39.6949 8.34027 39.6949 7.17299C39.6949 6.00431 40.6008 5.06599 41.7221 5.06599C42.8421 5.06599 43.7493 6.00431 43.7493 7.17299C43.7493 8.34027 42.8421 9.27998 41.7221 9.27998Z" fill="black"/>
<path d="M41.7218 9.64954C40.4006 9.64954 39.3076 8.52581 39.3076 7.14362C39.3076 5.76283 40.385 4.6377 41.7218 4.6377C43.0445 4.6377 44.1375 5.76143 44.1375 7.14362C44.1375 8.53985 43.0459 9.64954 41.7218 9.64954ZM41.7218 4.82171C40.4857 4.82171 39.4947 5.86116 39.4947 7.15766C39.4947 8.44012 40.5013 9.47957 41.7218 9.47957C42.958 9.47957 43.9503 8.44012 43.9503 7.15766C43.9503 5.86256 42.958 4.82171 41.7218 4.82171ZM41.7218 9.36579C40.5594 9.36579 39.6096 8.38253 39.6096 7.15766C39.6096 5.94684 40.5594 4.96498 41.7218 4.96498C42.8871 4.96498 43.8341 5.94825 43.8341 7.15766C43.8341 8.38253 42.8871 9.36579 41.7218 9.36579ZM41.7218 5.1504C40.6586 5.1504 39.7825 6.06062 39.7825 7.17311C39.7825 8.29685 40.6586 9.19443 41.7218 9.19443C42.7851 9.19443 43.664 8.2828 43.664 7.17171C43.664 6.04798 42.7851 5.1504 41.7218 5.1504Z" fill="black"/>
<path fill-rule="evenodd" clip-rule="evenodd" d="M47.0099 4.7373C45.7312 4.7373 44.6963 5.8189 44.6963 7.15754C44.6963 8.49759 45.7312 9.57917 47.0099 9.57917C48.29 9.57917 49.3249 8.49759 49.3249 7.15754C49.3249 5.8189 48.29 4.7373 47.0099 4.7373ZM47.0099 9.27998C45.89 9.27998 44.9827 8.34027 44.9827 7.17299C44.9827 6.00431 45.89 5.06599 47.0099 5.06599C48.1312 5.06599 49.0371 6.00431 49.0371 7.17299C49.0371 8.34027 48.1312 9.27998 47.0099 9.27998Z" fill="black"/>
<path d="M47.0099 4.7373C45.7312 4.7373 44.6963 5.8189 44.6963 7.15754C44.6963 8.49759 45.7312 9.57917 47.0099 9.57917C48.29 9.57917 49.3249 8.49759 49.3249 7.15754C49.3249 5.8189 48.29 4.7373 47.0099 4.7373ZM47.0099 9.27998C45.89 9.27998 44.9827 8.34027 44.9827 7.17299C44.9827 6.00431 45.89 5.06599 47.0099 5.06599C48.1312 5.06599 49.0371 6.00431 49.0371 7.17299C49.0371 8.34027 48.1312 9.27998 47.0099 9.27998Z" fill="black"/>
<path d="M47.0105 9.64967C45.6879 9.64967 44.5963 8.52594 44.5963 7.14375C44.5963 5.76296 45.6737 4.63783 47.0105 4.63783C48.3331 4.63783 49.4247 5.76156 49.4247 7.14375C49.4247 8.53998 48.3331 9.64967 47.0105 9.64967ZM47.0105 4.82184C45.7885 4.82184 44.782 5.86129 44.782 7.15779C44.782 8.44025 45.7885 9.4797 47.0105 9.4797C48.2467 9.4797 49.2376 8.44025 49.2376 7.15779C49.2376 5.86269 48.2453 4.82184 47.0105 4.82184ZM47.0105 9.36592C45.8466 9.36592 44.8982 8.38266 44.8982 7.15779C44.8982 5.94697 45.8466 4.96511 47.0105 4.96511C48.1744 4.96511 49.1228 5.94838 49.1228 7.15779C49.1228 8.38266 48.1744 9.36592 47.0105 9.36592ZM47.0105 5.15053C45.9473 5.15053 45.0698 6.06075 45.0698 7.17324C45.0698 8.29698 45.9473 9.19456 47.0105 9.19456C48.0737 9.19456 48.9512 8.28293 48.9512 7.17184C48.9512 6.04811 48.0737 5.14912 47.0091 5.14912L47.0105 5.15053ZM37.0177 1.16269L36.5158 1.57566C35.8254 1.04891 35.3378 0.849448 34.2731 1.00537C33.0667 1.19078 32.175 1.9184 31.5711 2.90026C30.953 3.88352 30.7957 4.99321 31.0821 6.18998C31.3698 7.4008 31.8873 8.65376 32.8796 9.25215C33.8719 9.85053 34.8203 9.87863 36.0551 9.52184C36.8759 9.29429 37.6655 8.35457 37.8243 7.37271L38.4707 7.52722C38.3261 8.82513 37.321 9.76485 36.228 10.2059C34.8345 10.7608 33.6409 10.5613 32.4486 9.85053C31.255 9.15242 30.6086 7.75759 30.2783 6.3754C29.948 4.97916 30.1776 3.69811 30.9531 2.52943C31.7299 1.36215 32.779 0.50671 34.1725 0.307248C35.2215 0.166781 36.255 0.364839 37.0177 1.16269Z" fill="black"/>
<path fill-rule="evenodd" clip-rule="evenodd" d="M51.4538 3.95502L51.7274 0.238281L51.1377 0.266375L50.4629 8.41342C50.3339 9.60879 51.8423 9.68043 51.8423 9.68043L55.9392 9.39528L55.8967 8.82499L51.9132 9.02445C50.952 9.0385 51.1377 8.39797 51.1377 8.39797L51.4113 4.59555L51.4538 3.95502Z" fill="black"/>
<path d="M51.4538 3.95502L51.7274 0.238281L51.1377 0.266375L50.4629 8.41342C50.3339 9.60879 51.8423 9.68043 51.8423 9.68043L55.9392 9.39528L55.8967 8.82499L51.9132 9.02445C50.952 9.0385 51.1377 8.39797 51.1377 8.39797L51.4113 4.59555L51.4538 3.95502Z" fill="black"/>
<path d="M51.8422 9.70835C51.828 9.70835 51.0653 9.66621 50.6627 9.2097C50.477 8.99619 50.4047 8.73913 50.4331 8.41185L51.1093 0.25075H51.1234L51.7273 0.222656V0.236703L51.1376 8.38375C51.1376 8.38375 51.0809 8.59726 51.2085 8.76723C51.3247 8.92455 51.5544 8.99619 51.8847 8.99619H51.8989L55.9093 8.79673L55.9519 9.39371H55.9377L51.8422 9.70835ZM51.1518 0.292889L50.477 8.42449C50.4487 8.72368 50.5195 8.99478 50.6925 9.19425C51.0653 9.63531 51.7982 9.67745 51.8408 9.67745L55.9093 9.3923L55.881 8.86555L51.8989 9.06502C51.5544 9.06502 51.3106 8.98074 51.1943 8.82341C51.0511 8.638 51.1234 8.42449 51.1234 8.41044L51.7118 0.277438L51.1518 0.291485V0.292889ZM1.43422 13.7243H0.5V60.8648H1.43422V13.7243ZM3.29981 13.7243H2.3656V60.8648H3.30123L3.29981 13.7243ZM7.98932 13.7243H6.12089V60.8648H7.98932V13.7243ZM9.85633 13.7243H8.92212V60.8648H9.85775L9.85633 13.7243ZM12.676 13.7103H11.8127V60.8199H12.676V13.7089V13.7103ZM16.4114 13.7103H14.6153V60.8199H16.4114V13.7089V13.7103ZM19.2311 13.7103H17.2889V60.8199H19.2311V13.7089V13.7103ZM22.9807 13.7103H20.0916V60.8199H22.9807V13.7089V13.7103ZM24.8477 13.7103H23.9121V60.8199H24.8477V13.7089V13.7103ZM29.5472 13.7103H25.7961V60.8199H29.5472V13.7089V13.7103ZM33.2727 13.7103H30.3977V60.8199H33.2727V13.7089V13.7103ZM36.0867 13.7103H34.1459V60.8199H36.0881V13.7089L36.0867 13.7103ZM38.9078 13.7103H38.0444V60.8199H38.9078V13.7089V13.7103ZM42.6432 13.7103H40.8471V60.8199H42.6432V13.7089V13.7103ZM44.523 13.7243H43.5873V61.1219H44.523V13.7229V13.7243ZM46.3942 13.7243H45.4586V61.1219H46.3942V13.7229V13.7243ZM50.1595 13.7103H47.3426V60.8199H50.1595V13.7089V13.7103ZM52.9621 13.7103H52.0265V60.8199H52.9621V13.7089V13.7103ZM55.8342 13.7103H53.8935V60.8199H55.8342V13.7089V13.7103ZM59.5881 13.7103H57.6488V60.8199H59.5881V13.7089V13.7103ZM62.3907 13.7103H60.45V60.8199H62.3907V13.7089V13.7103ZM66.1446 13.7103H64.2053V60.8199H66.1446V13.7089V13.7103ZM67.9507 13.7103H67.0179V60.8199H67.9521V13.7089L67.9507 13.7103ZM72.626 13.7103H71.6904V60.8199H72.626V13.7089V13.7103ZM75.5151 13.7103H73.573V60.8199H75.5151V13.7089V13.7103ZM78.3163 13.7103H76.3756V60.8199H78.3178V13.7089L78.3163 13.7103ZM82.066 13.7103H80.1252V60.6218H82.066V13.7103ZM84.8842 13.7103H82.9435V60.6218H84.8842V13.7103ZM87.616 13.7103H86.6818V60.6218H87.616V13.7103ZM89.4986 13.7103H88.5644V60.6218H89.5L89.4986 13.7103ZM12.1727 2.11615L12.7483 9.82213L13.4089 9.70695L12.7341 1.90264L12.1727 2.11615Z" fill="black"/>
<path d="M15.1586 0.607327C12.5997 0.749198 11.1481 1.50491 11.1481 1.50491L10.9326 1.63273L11.1056 2.17353C11.1056 2.17353 12.5856 1.39113 15.0296 1.21976C17.3148 1.06384 18.0916 2.50222 18.4219 3.29866C19.1548 5.00814 18.7239 6.85948 17.8761 8.01271C16.5677 9.77978 14.3689 10.0776 12.801 10.1197V10.69H12.9173C14.6992 10.6338 16.7548 10.3205 18.378 8.41164C19.3987 7.21627 19.7588 4.72299 19.0825 3.21438C18.7083 2.3154 17.5884 0.465456 15.1586 0.607327ZM26.5605 4.66681C25.2946 4.73704 24.59 5.09382 24.5617 5.10787L24.3901 5.2076L24.5333 5.63462L24.6184 5.57843C24.6184 5.57843 24.8353 5.46465 25.2081 5.36492L25.0224 5.43516L25.3244 9.33731H25.3385V9.76573H25.4817C26.3734 9.73764 27.4083 9.58032 28.2277 8.62515C28.7593 8.01271 28.9308 6.74571 28.5863 5.9914C28.3992 5.57843 27.8265 4.58112 26.5605 4.66681ZM25.4534 9.18139L25.1783 5.53489L25.3244 5.4787L25.6405 9.1533L25.4534 9.18139ZM25.4392 5.32138C25.7411 5.25115 26.0856 5.16546 26.5166 5.13596H26.6754C27.5656 5.13596 27.9115 5.69221 28.0831 6.10518C28.4573 6.98731 28.1837 7.84275 27.825 8.32736C27.3799 8.93979 26.6314 9.25303 25.5682 9.31062L25.7837 9.26708L25.4392 5.32138ZM28.0831 8.51137C27.3218 9.41035 26.3592 9.56487 25.5101 9.59296V9.48059C26.6754 9.43845 27.4806 9.08166 27.9824 8.41304C28.3567 7.89894 28.6586 6.95922 28.256 6.0195C28.127 5.73435 27.7527 4.86627 26.5024 4.95195C25.5242 5.02219 24.8778 5.27924 24.634 5.37897L24.6056 5.27924L24.6481 5.25115C24.6623 5.25115 25.3527 4.89436 26.5747 4.82272H26.6881C27.7088 4.82272 28.2135 5.59248 28.4148 6.04759C28.7309 6.75975 28.5721 7.95653 28.0831 8.51137ZM23.5977 5.27924H23.6827L23.6544 4.85082L20.6348 4.94914L20.5923 5.4197L20.8376 5.40566L20.5498 8.89484C20.5356 9.05216 20.564 9.19404 20.6646 9.30781C20.8659 9.53677 21.226 9.55082 21.2402 9.55082L23.6827 9.423L23.6544 8.99457L21.2685 9.08026C21.1537 9.08026 21.0672 9.05216 21.0389 9.01002C21.0105 8.96788 21.0247 8.90889 21.0247 8.89484L21.1381 7.30055L23.1511 7.18677L23.1228 6.75975L21.1821 6.82999L21.2827 5.37757L23.5977 5.27924ZM22.964 6.94376V7.0154L20.9807 7.12918L20.8517 8.8527C20.8517 8.86675 20.8092 8.99457 20.8943 9.10835C20.9666 9.19404 21.0956 9.25163 21.2827 9.25163L23.4956 9.16594V9.23618L21.2402 9.35276C21.1537 9.35276 20.924 9.31062 20.7936 9.16735C20.7369 9.09711 20.7086 9.01002 20.7227 8.8822L21.0247 5.19355L20.7794 5.2076L20.7936 5.09523L23.4814 5.00814V5.07978L21.0956 5.17951L20.968 6.98871L22.964 6.94657V6.94376ZM41.722 4.65135C40.4008 4.65135 39.3078 5.77649 39.3078 7.15868C39.3078 8.53946 40.3852 9.6646 41.722 9.6646C43.0447 9.6646 44.1377 8.54087 44.1377 7.15868C44.1377 5.77649 43.0461 4.65135 41.722 4.65135ZM41.722 9.47918C40.4859 9.47918 39.4949 8.43973 39.4949 7.15868C39.4949 5.87622 40.5015 4.82272 41.722 4.82272C42.9582 4.82272 43.9506 5.86217 43.9506 7.15868C43.9506 8.43973 42.9582 9.47918 41.722 9.47918Z" fill="black"/>
<path d="M41.7187 4.96602C40.5562 4.96602 39.6064 5.94928 39.6064 7.1587C39.6064 8.36952 40.5562 9.36683 41.7187 9.36683C42.884 9.36683 43.831 8.38356 43.831 7.1587C43.831 5.94928 42.884 4.96602 41.7187 4.96602ZM41.7187 9.19546C40.6555 9.19546 39.7794 8.28383 39.7794 7.17274C39.7794 6.06306 40.6555 5.15003 41.7187 5.15003C42.7819 5.15003 43.6609 6.06306 43.6609 7.17274C43.6609 8.28383 42.7819 9.19546 41.7187 9.19546ZM47.0107 4.65137C45.6881 4.65137 44.5965 5.77651 44.5965 7.1587C44.5965 8.53948 45.6739 9.66462 47.0107 9.66462C48.3333 9.66462 49.4249 8.54089 49.4249 7.1587C49.4249 5.77651 48.3333 4.65137 47.0107 4.65137ZM47.0107 9.4792C45.7887 9.4792 44.7822 8.43975 44.7822 7.1587C44.7822 5.87624 45.7887 4.82274 47.0107 4.82274C48.2469 4.82274 49.2378 5.86219 49.2378 7.1587C49.2378 8.43975 48.2455 9.4792 47.0107 9.4792Z" fill="black"/>
<path d="M47.008 4.96643C45.8441 4.96643 44.8957 5.94969 44.8957 7.15911C44.8957 8.36993 45.8441 9.36724 47.008 9.36724C48.1718 9.36724 49.1202 8.38397 49.1202 7.15911C49.1202 5.94969 48.1718 4.96643 47.008 4.96643ZM47.008 9.19587C45.9447 9.19587 45.0672 8.28424 45.0672 7.17315C45.0672 6.06347 45.9447 5.15044 47.008 5.15044C48.0712 5.15044 48.9487 6.06347 48.9487 7.17315C48.9487 8.28424 48.0726 9.19587 47.008 9.19587ZM36.0256 9.5372C34.7894 9.89399 33.8411 9.86449 32.8501 9.2661C31.8578 8.66912 31.3404 7.41476 31.0526 6.20394C30.7648 4.99452 30.9378 3.89748 31.5417 2.91422C32.1597 1.9169 33.05 1.20615 34.2437 1.02073C35.3069 0.86341 35.796 1.06287 36.4849 1.59102L36.9896 1.17805C36.2283 0.380205 35.1935 0.166697 34.1302 0.322614C32.7353 0.522076 31.6721 1.37611 30.9108 2.54479C30.134 3.71206 29.9185 4.99452 30.2346 6.38935C30.5649 7.77154 31.2128 9.16637 32.4036 9.86449C33.5972 10.5626 34.7909 10.7775 36.1844 10.2213C37.2618 9.79426 38.2825 8.85313 38.4271 7.54399L37.7806 7.38666C37.636 8.36993 36.845 9.30965 36.027 9.5372H36.0256ZM55.9092 8.82504L51.8988 9.0245H51.8846C51.5543 9.0245 51.3246 8.95427 51.2098 8.79695C51.0794 8.62558 51.1375 8.41207 51.1375 8.41207L51.7272 0.265023V0.250977L51.1233 0.27907H51.1092L50.433 8.44016C50.4046 8.7534 50.4755 9.0245 50.6626 9.23801C51.051 9.69453 51.8279 9.73667 51.8279 9.73667L55.9248 9.45152H55.939L55.9092 8.82504ZM51.8407 9.67767C51.8123 9.67767 51.0794 9.63553 50.6924 9.19447C50.5194 8.995 50.4471 8.73795 50.4769 8.42471L51.1517 0.293116L51.6975 0.265023L51.1092 8.39802C51.1092 8.41207 51.0369 8.62558 51.18 8.81099C51.3105 8.96831 51.5401 9.05259 51.8846 9.05259L55.8667 8.85313L55.8951 9.38129L51.8407 9.67767ZM12.7283 1.90286L12.167 2.11637L12.7425 9.82235L13.4031 9.70717L12.7283 1.90286ZM13.8511 65.0523H14.455V68.998H16.6382V69.5107H13.8525L13.8511 65.0523ZM19.9299 64.9807C20.5621 64.9807 21.0654 65.1956 21.4397 65.6086C21.8125 66.0216 21.9996 66.5918 21.9996 67.2886C21.9996 67.9867 21.8125 68.5556 21.4397 68.9685C21.0654 69.3815 20.5621 69.5964 19.9299 69.5964C19.2976 69.5964 18.7958 69.3815 18.4215 68.9685C18.0473 68.5556 17.8602 67.9853 17.8602 67.2886C17.8602 66.5904 18.0473 66.0216 18.4215 65.6086C18.7944 65.1816 19.2976 64.9807 19.9299 64.9807ZM19.9299 65.4653C19.4848 65.4653 19.1403 65.6226 18.8808 65.9499C18.6228 66.2772 18.4924 66.7183 18.4924 67.2886C18.4924 67.8448 18.6214 68.2859 18.8808 68.6132C19.1403 68.9404 19.4848 69.0978 19.9299 69.0978C20.375 69.0978 20.7209 68.9404 20.9789 68.6132C21.2384 68.2859 21.3674 67.8448 21.3674 67.2886C21.3674 66.7337 21.2384 66.2772 20.9789 65.9499C20.7209 65.6367 20.375 65.4653 19.9299 65.4653ZM26.7317 65.2083V65.7926C26.5006 65.6788 26.2851 65.6072 26.0838 65.551C25.8825 65.4934 25.6812 65.4653 25.4955 65.4653C25.1638 65.4653 24.9058 65.5215 24.7328 65.6493C24.5613 65.7785 24.4606 65.9626 24.4606 66.1915C24.4606 66.391 24.5173 66.5328 24.6322 66.6326C24.747 66.7323 24.9781 66.818 25.3084 66.8742L25.6826 66.9458C26.1419 67.0301 26.4722 67.1874 26.6891 67.4023C26.9032 67.6158 27.018 67.8996 27.018 68.2704C27.018 68.6974 26.8748 69.0247 26.5871 69.2537C26.2993 69.4812 25.8683 69.581 25.3084 69.581C25.0929 69.581 24.8632 69.5529 24.6322 69.5107C24.3883 69.4672 24.1445 69.3956 23.8851 69.2958V68.6834C24.1303 68.8253 24.3741 68.925 24.6038 68.9966C24.8335 69.0669 25.0787 69.0964 25.3084 69.0964C25.6528 69.0964 25.9264 69.0261 26.1136 68.8969C26.2993 68.7691 26.3999 68.5696 26.3999 68.3126C26.3999 68.099 26.3291 67.9291 26.1986 67.7999C26.071 67.6734 25.84 67.5863 25.538 67.5302L25.1638 67.4599C24.7045 67.3728 24.3883 67.231 24.187 67.0315C23.9857 66.8461 23.8851 66.575 23.8851 66.2336C23.8851 65.8347 24.0297 65.5355 24.3018 65.308C24.5896 65.0804 24.9625 64.9666 25.4515 64.9666C25.667 64.9666 25.8825 64.9807 26.0994 65.0228C26.2709 65.065 26.5006 65.1226 26.7317 65.2083ZM33.196 65.0509H33.8864L35.5975 69.4953H34.9638L34.5612 68.3561H32.534L32.1186 69.4939H31.4722L33.196 65.0509ZM33.5419 65.6493L32.7225 67.8574H34.3755L33.5419 65.6493ZM38.1421 65.0509L40.1268 68.7691V65.0509H40.7151V69.4953H39.8957L37.8969 65.7771V69.4953H37.3086V65.0509H38.1421ZM46.061 68.8688V67.672H45.0687V67.1734H46.6649V69.0823C46.4352 69.2537 46.1758 69.3675 45.888 69.4531C45.6003 69.5374 45.2997 69.5796 44.9822 69.5796C44.279 69.5796 43.7333 69.3815 43.3306 68.9685C42.9422 68.5556 42.7409 67.9993 42.7409 67.2731C42.7409 66.5469 42.9422 65.978 43.3306 65.5791C43.7333 65.1661 44.279 64.9666 44.9822 64.9666C45.27 64.9666 45.5577 65.0088 45.8172 65.079C46.0752 65.1521 46.3204 65.2518 46.5501 65.3937V66.0342C46.319 65.8488 46.0893 65.7069 45.8313 65.6072C45.5719 65.5088 45.3139 65.4653 45.0403 65.4653C44.4945 65.4653 44.0763 65.6212 43.8041 65.9204C43.532 66.2196 43.3874 66.6761 43.3874 67.2731C43.3874 67.8715 43.532 68.3266 43.8041 68.6258C44.0777 68.925 44.4945 69.0823 45.0403 69.0823C45.2558 69.0823 45.4429 69.0683 45.6159 69.0261C45.7874 69.0121 45.932 68.9545 46.061 68.8688ZM48.848 65.0509H51.6805V65.5636H49.4505V66.8742H51.5926V67.3869H49.452V68.9966H51.7358V69.5093H48.8466L48.848 65.0509ZM53.8097 65.0509H54.4136V68.9966H56.5982V69.5093H53.8097V65.0509ZM58.3249 65.0509H61.1701V65.5636H58.9415V66.8742H61.0822V67.3869H58.9415V68.9966H61.2268V69.5093H58.3391V65.0509H58.3249ZM65.9659 65.2083V65.7926C65.7362 65.6788 65.5208 65.6072 65.3194 65.551C65.1181 65.4934 64.9168 65.4653 64.7297 65.4653C64.3994 65.4653 64.14 65.5215 63.9685 65.6493C63.7955 65.7785 63.6948 65.9626 63.6948 66.1915C63.6948 66.391 63.7516 66.5328 63.8678 66.6326C63.9826 66.7323 64.2123 66.818 64.5426 66.8742L64.9168 66.9458C65.3762 67.0301 65.7079 67.1874 65.9234 67.4023C66.1388 67.6158 66.2537 67.8996 66.2537 68.2704C66.2537 68.6974 66.1091 69.0247 65.8085 69.2537C65.5208 69.4812 65.0898 69.581 64.5284 69.581C64.3129 69.581 64.0833 69.5529 63.8536 69.5107C63.6084 69.4672 63.3645 69.3956 63.1065 69.2958V68.6834C63.3504 68.8253 63.5942 68.925 63.8239 68.9966C64.0549 69.0669 64.2988 69.0964 64.5142 69.0964C64.8587 69.0964 65.1323 69.0261 65.3194 68.8969C65.5066 68.7691 65.6072 68.5696 65.6072 68.3126C65.6072 68.099 65.5349 67.9291 65.4059 67.7999C65.2613 67.6734 65.0458 67.5863 64.7439 67.5302L64.3711 67.4599C63.9103 67.3728 63.5942 67.231 63.3929 67.0315C63.1916 66.8461 63.0909 66.575 63.0909 66.2336C63.0909 65.8347 63.2355 65.5355 63.5077 65.308C63.7955 65.0804 64.1698 64.9666 64.6588 64.9666C64.8743 64.9666 65.0898 64.9807 65.3053 65.0228C65.5208 65.065 65.7504 65.1226 65.9659 65.2083ZM71.4152 68.7564H72.0475V69.2677L71.5584 70.2229H71.1714L71.4152 69.2677V68.7564ZM80.712 65.4077V66.0496C80.5107 65.8642 80.2953 65.7209 80.0656 65.6212C79.8359 65.5229 79.5921 65.4793 79.3327 65.4793C78.8153 65.4793 78.4268 65.6367 78.1546 65.9499C77.881 66.2632 77.7379 66.7042 77.7379 67.3026C77.7379 67.8855 77.881 68.3421 78.1546 68.6413C78.4268 68.9545 78.8153 69.1104 79.3327 69.1104C79.5907 69.1104 79.8359 69.0683 80.0656 68.9699C80.2953 68.8688 80.5107 68.7269 80.712 68.5415V69.168C80.4966 69.3099 80.2811 69.425 80.0372 69.4953C79.7934 69.5655 79.5482 69.6091 79.2902 69.6091C78.6139 69.6091 78.0823 69.3955 77.6797 68.9966C77.2913 68.5837 77.09 68.0274 77.09 67.3026C77.09 66.5904 77.2771 66.0201 77.6797 65.6072C78.0682 65.1942 78.6154 64.9947 79.2902 64.9947C79.5623 64.9947 79.8076 65.0369 80.0514 65.0945C80.2811 65.1507 80.5107 65.2658 80.712 65.4077ZM83.9045 65.0509H84.5935L86.3046 69.4953H85.6723L85.2555 68.3561H83.2283L82.8257 69.4939H82.1793L83.9045 65.0509ZM84.249 65.6493L83.431 67.8574H85.084L84.249 65.6493Z" fill="black"/>
</g>
<defs>
<clipPath id="clip0_2001_3275">
<rect width="89" height="70" fill="white" transform="translate(0.5 0.222656)"/>
</clipPath>
</defs>
</svg>
